<?xml version="1.0" encoding="UTF-8"?>
<svg width="253px" height="48px" viewBox="0 0 253 48" version="1.1" xmlns="http://www.w3.org/2000/svg" xmlns:xlink="http://www.w3.org/1999/xlink">
    <!-- Generator: Sketch 56.3 (81716) - https://sketch.com -->
    <title>Combined Shape</title>
    <desc>Created with Sketch.</desc>
    <g id="Page-1" stroke="none" stroke-width="1" fill="none" fill-rule="evenodd">
        <g id="Desktop-HD" transform="translate(-95.000000, -70.000000)" fill="#FFFFFF" fill-rule="nonzero">
            <path d="M176.28,102 L176.28,108.24 L169,108.24 L169,80.44 L176.28,80 L176.28,94.4 L183.52,88.28 L187.88,93.28 L182.52,97.32 L189.28,108.24 L181.44,108.24 L177.48,101.12 L176.28,102 Z M196.56,101.72 C196.56,102.040002 196.693332,102.306666 196.96,102.52 C197.226668,102.733334 197.533332,102.84 197.88,102.84 C198.306669,102.84 198.733331,102.746668 199.16,102.56 C199.586669,102.373332 200.013331,102.106668 200.44,101.76 L200.44,100.32 L198.2,100.32 C197.719998,100.32 197.326668,100.446665 197.02,100.7 C196.713332,100.953335 196.56,101.293331 196.56,101.72 Z M191.12,90 C192.133338,89.5466644 193.413326,89.1266686 194.96,88.74 C196.506674,88.3533314 198.079992,88.16 199.68,88.16 C202.320013,88.16 204.319993,88.893326 205.68,90.36 C207.040007,91.826674 207.72,93.7866544 207.72,96.24 L207.72,108.24 L204.48,108.24 L203.16,106.76 C202.57333,107.34667 201.800005,107.813332 200.84,108.16 C199.879995,108.506668 198.853339,108.68 197.76,108.68 C195.306654,108.68 193.48,108.066673 192.28,106.84 C191.079994,105.613327 190.48,104.00001 190.48,102 C190.48,99.8933228 191.18666,98.3533382 192.6,97.38 C194.01334,96.4066618 195.839989,95.92 198.08,95.92 L200.4,95.92 C200.293333,95.3333304 200.013336,94.8800016 199.56,94.56 C199.106664,94.2399984 198.54667,94.08 197.88,94.08 C197.21333,94.08 196.426671,94.1933322 195.52,94.42 C194.613329,94.6466678 193.78667,94.9199984 193.04,95.24 L191.12,90 Z M227.96,106.96 C227.479998,107.386669 226.700005,107.779998 225.62,108.14 C224.539995,108.500002 223.533338,108.68 222.6,108.68 C220.119988,108.68 217.92001,108.040006 216,106.76 C214.07999,105.479994 213.12,103.54668 213.12,100.96 L213.12,95.36 L210.12,95.36 L210.12,89.64 L213.12,89.64 L213.12,84.4 L220.4,83.4 L220.4,89.64 L225.08,89.64 L225.76,95.36 L220.4,95.36 L220.4,100.16 C220.4,100.960004 220.633331,101.593331 221.1,102.06 C221.566669,102.526669 222.226662,102.76 223.08,102.76 C223.426668,102.76 223.866664,102.700001 224.4,102.58 C224.933336,102.459999 225.426664,102.266668 225.88,102 L227.96,106.96 Z M229.56,98.56 C229.56,95.3066504 230.566657,92.7600092 232.58,90.92 C234.593343,89.0799908 237.066652,88.16 240,88.16 C243.093349,88.16 245.413326,89.16 246.96,91.16 C248.506674,93.16001 249.28,95.5199864 249.28,98.24 L249.28,100.76 L237.48,100.76 C237.800002,101.50667 238.286663,102.039998 238.94,102.36 C239.593337,102.680002 240.373329,102.84 241.28,102.84 C242.133338,102.84 243.006662,102.760001 243.9,102.6 C244.793338,102.439999 245.61333,102.173335 246.36,101.8 L248.4,106.72 C247.279994,107.546671 245.893342,108.079999 244.24,108.32 C242.586658,108.560001 241.360004,108.68 240.56,108.68 C237.413318,108.68 234.793344,107.873341 232.7,106.26 C230.606656,104.646659 229.56,102.080018 229.56,98.56 Z M242.32,96.36 C242.293333,95.9333312 242.093335,95.4333362 241.72,94.86 C241.346665,94.2866638 240.706671,94 239.8,94 C239.13333,94 238.593335,94.2066646 238.18,94.62 C237.766665,95.0333354 237.466668,95.6133296 237.28,96.36 L242.32,96.36 Z M275.68,95.12 C274.906663,94.719998 274.240003,94.4466674 273.68,94.3 C273.119997,94.1533326 272.493337,94.08 271.8,94.08 C270.813328,94.08 269.933337,94.479996 269.16,95.28 C268.386663,96.080004 268,97.1733264 268,98.56 C268,99.9200068 268.386663,100.959996 269.16,101.68 C269.933337,102.400004 270.813328,102.76 271.8,102.76 C272.440003,102.76 273.05333,102.686667 273.64,102.54 C274.22667,102.393333 274.906663,102.120002 275.68,101.72 L277.72,106.72 C276.599994,107.600004 275.41334,108.146666 274.16,108.36 C272.90666,108.573334 271.880004,108.68 271.08,108.68 C267.933318,108.68 265.38001,107.806675 263.42,106.06 C261.45999,104.313325 260.48,101.81335 260.48,98.56 C260.48,95.3066504 261.45999,92.7600092 263.42,90.92 C265.38001,89.0799908 267.933318,88.16 271.08,88.16 C271.880004,88.16 272.90666,88.2666656 274.16,88.48 C275.41334,88.6933344 276.599994,89.2399956 277.72,90.12 L275.68,95.12 Z M281.16,108.24 L281.16,80.44 L288.44,80 L288.44,89.44 C289.240004,89.0933316 290.146662,88.7933346 291.16,88.54 C292.173338,88.2866654 293.146662,88.16 294.08,88.16 C296.82668,88.16 298.786661,88.926659 299.96,90.46 C301.133339,91.993341 301.72,93.9199884 301.72,96.24 L301.72,108.24 L294.44,108.24 L294.44,96.4 C294.44,95.6533296 294.213336,95.080002 293.76,94.68 C293.306664,94.279998 292.74667,94.08 292.08,94.08 C291.626664,94.08 291.053337,94.1999988 290.36,94.44 C289.666663,94.6800012 289.02667,94.933332 288.44,95.2 L288.44,108.24 L281.16,108.24 Z M311,101.72 C311,102.040002 311.133332,102.306666 311.4,102.52 C311.666668,102.733334 311.973332,102.84 312.32,102.84 C312.746669,102.84 313.173331,102.746668 313.6,102.56 C314.026669,102.373332 314.453331,102.106668 314.88,101.76 L314.88,100.32 L312.64,100.32 C312.159998,100.32 311.766668,100.446665 311.46,100.7 C311.153332,100.953335 311,101.293331 311,101.72 Z M305.56,90 C306.573338,89.5466644 307.853326,89.1266686 309.4,88.74 C310.946674,88.3533314 312.519992,88.16 314.12,88.16 C316.760013,88.16 318.759993,88.893326 320.12,90.36 C321.480007,91.826674 322.16,93.7866544 322.16,96.24 L322.16,108.24 L318.92,108.24 L317.6,106.76 C317.01333,107.34667 316.240005,107.813332 315.28,108.16 C314.319995,108.506668 313.293339,108.68 312.2,108.68 C309.746654,108.68 307.92,108.066673 306.72,106.84 C305.519994,105.613327 304.92,104.00001 304.92,102 C304.92,99.8933228 305.62666,98.3533382 307.04,97.38 C308.45334,96.4066618 310.279989,95.92 312.52,95.92 L314.84,95.92 C314.733333,95.3333304 314.453336,94.8800016 314,94.56 C313.546664,94.2399984 312.98667,94.08 312.32,94.08 C311.65333,94.08 310.866671,94.1933322 309.96,94.42 C309.053329,94.6466678 308.22667,94.9199984 307.48,95.24 L305.56,90 Z M331.72,90.56 C332.546671,90.0799976 333.639993,89.5600028 335,89 C336.360007,88.4399972 337.853325,88.16 339.48,88.16 C342.22668,88.16 344.186661,88.926659 345.36,90.46 C346.533339,91.993341 347.12,93.9199884 347.12,96.24 L347.12,108.24 L339.84,108.24 L339.84,96.4 C339.84,95.6533296 339.613336,95.080002 339.16,94.68 C338.706664,94.279998 338.14667,94.08 337.48,94.08 C337.026664,94.08 336.453337,94.1999988 335.76,94.44 C335.066663,94.6800012 334.42667,94.933332 333.84,95.2 L333.84,108.24 L326.56,108.24 L326.56,88.88 L330.2,88.88 L331.72,90.56 Z M119,73 L119,115 L140,115 L140,73 L119,73 Z M95,70 L143,70 L143,118 L95,118 L95,70 Z" id="Combined-Shape"></path>
        </g>
    </g>
</svg>