<?xml version="1.0" encoding="UTF-8"?>
<svg width="253px" height="48px" viewBox="0 0 253 48" version="1.1" xmlns="http://www.w3.org/2000/svg" xmlns:xlink="http://www.w3.org/1999/xlink">
    <!-- Generator: Sketch 56.3 (81716) - https://sketch.com -->
    <title>Rectangle</title>
    <desc>Created with Sketch.</desc>
    <defs>
        <path d="M81.28,32 L81.28,38.24 L74,38.24 L74,10.44 L81.28,10 L81.28,24.4 L88.52,18.28 L92.88,23.28 L87.52,27.32 L94.28,38.24 L86.44,38.24 L82.48,31.12 L81.28,32 Z M101.56,31.72 C101.56,32.0400016 101.693332,32.3066656 101.96,32.52 C102.226668,32.7333344 102.533332,32.84 102.88,32.84 C103.306669,32.84 103.733331,32.7466676 104.16,32.56 C104.586669,32.3733324 105.013331,32.1066684 105.44,31.76 L105.44,30.32 L103.2,30.32 C102.719998,30.32 102.326668,30.4466654 102.02,30.7 C101.713332,30.9533346 101.56,31.2933312 101.56,31.72 Z M96.12,20 C97.1333384,19.5466644 98.4133256,19.1266686 99.96,18.74 C101.506674,18.3533314 103.079992,18.16 104.68,18.16 C107.320013,18.16 109.319993,18.893326 110.68,20.36 C112.040007,21.826674 112.72,23.7866544 112.72,26.24 L112.72,38.24 L109.48,38.24 L108.16,36.76 C107.57333,37.3466696 106.800005,37.8133316 105.84,38.16 C104.879995,38.5066684 103.853339,38.68 102.76,38.68 C100.306654,38.68 98.48,38.0666728 97.28,36.84 C96.079994,35.6133272 95.48,34.00001 95.48,32 C95.48,29.8933228 96.1866596,28.3533382 97.6,27.38 C99.0133404,26.4066618 100.839989,25.92 103.08,25.92 L105.4,25.92 C105.293333,25.3333304 105.013336,24.8800016 104.56,24.56 C104.106664,24.2399984 103.54667,24.08 102.88,24.08 C102.21333,24.08 101.426671,24.1933322 100.52,24.42 C99.6133288,24.6466678 98.7866704,24.9199984 98.04,25.24 L96.12,20 Z M132.96,36.96 C132.479998,37.3866688 131.700005,37.7799982 130.62,38.14 C129.539995,38.5000018 128.533338,38.68 127.6,38.68 C125.119988,38.68 122.92001,38.0400064 121,36.76 C119.07999,35.4799936 118.12,33.5466796 118.12,30.96 L118.12,25.36 L115.12,25.36 L115.12,19.64 L118.12,19.64 L118.12,14.4 L125.4,13.4 L125.4,19.64 L130.08,19.64 L130.76,25.36 L125.4,25.36 L125.4,30.16 C125.4,30.960004 125.633331,31.593331 126.1,32.06 C126.566669,32.526669 127.226662,32.76 128.08,32.76 C128.426668,32.76 128.866664,32.7000006 129.4,32.58 C129.933336,32.4599994 130.426664,32.266668 130.88,32 L132.96,36.96 Z M134.56,28.56 C134.56,25.3066504 135.566657,22.7600092 137.58,20.92 C139.593343,19.0799908 142.066652,18.16 145,18.16 C148.093349,18.16 150.413326,19.16 151.96,21.16 C153.506674,23.16001 154.28,25.5199864 154.28,28.24 L154.28,30.76 L142.48,30.76 C142.800002,31.5066704 143.286663,32.0399984 143.94,32.36 C144.593337,32.6800016 145.373329,32.84 146.28,32.84 C147.133338,32.84 148.006662,32.7600008 148.9,32.6 C149.793338,32.4399992 150.61333,32.1733352 151.36,31.8 L153.4,36.72 C152.279994,37.5466708 150.893342,38.0799988 149.24,38.32 C147.586658,38.5600012 146.360004,38.68 145.56,38.68 C142.413318,38.68 139.793344,37.8733414 137.7,36.26 C135.606656,34.6466586 134.56,32.0800176 134.56,28.56 Z M147.32,26.36 C147.293333,25.9333312 147.093335,25.4333362 146.72,24.86 C146.346665,24.2866638 145.706671,24 144.8,24 C144.13333,24 143.593335,24.2066646 143.18,24.62 C142.766665,25.0333354 142.466668,25.6133296 142.28,26.36 L147.32,26.36 Z M180.68,25.12 C179.906663,24.719998 179.240003,24.4466674 178.68,24.3 C178.119997,24.1533326 177.493337,24.08 176.8,24.08 C175.813328,24.08 174.933337,24.479996 174.16,25.28 C173.386663,26.080004 173,27.1733264 173,28.56 C173,29.9200068 173.386663,30.9599964 174.16,31.68 C174.933337,32.4000036 175.813328,32.76 176.8,32.76 C177.440003,32.76 178.05333,32.6866674 178.64,32.54 C179.22667,32.3933326 179.906663,32.120002 180.68,31.72 L182.72,36.72 C181.599994,37.6000044 180.41334,38.1466656 179.16,38.36 C177.90666,38.5733344 176.880004,38.68 176.08,38.68 C172.933318,38.68 170.38001,37.8066754 168.42,36.06 C166.45999,34.3133246 165.48,31.8133496 165.48,28.56 C165.48,25.3066504 166.45999,22.7600092 168.42,20.92 C170.38001,19.0799908 172.933318,18.16 176.08,18.16 C176.880004,18.16 177.90666,18.2666656 179.16,18.48 C180.41334,18.6933344 181.599994,19.2399956 182.72,20.12 L180.68,25.12 Z M186.16,38.24 L186.16,10.44 L193.44,10 L193.44,19.44 C194.240004,19.0933316 195.146662,18.7933346 196.16,18.54 C197.173338,18.2866654 198.146662,18.16 199.08,18.16 C201.82668,18.16 203.786661,18.926659 204.96,20.46 C206.133339,21.993341 206.72,23.9199884 206.72,26.24 L206.72,38.24 L199.44,38.24 L199.44,26.4 C199.44,25.6533296 199.213336,25.080002 198.76,24.68 C198.306664,24.279998 197.74667,24.08 197.08,24.08 C196.626664,24.08 196.053337,24.1999988 195.36,24.44 C194.666663,24.6800012 194.02667,24.933332 193.44,25.2 L193.44,38.24 L186.16,38.24 Z M216,31.72 C216,32.0400016 216.133332,32.3066656 216.4,32.52 C216.666668,32.7333344 216.973332,32.84 217.32,32.84 C217.746669,32.84 218.173331,32.7466676 218.6,32.56 C219.026669,32.3733324 219.453331,32.1066684 219.88,31.76 L219.88,30.32 L217.64,30.32 C217.159998,30.32 216.766668,30.4466654 216.46,30.7 C216.153332,30.9533346 216,31.2933312 216,31.72 Z M210.56,20 C211.573338,19.5466644 212.853326,19.1266686 214.4,18.74 C215.946674,18.3533314 217.519992,18.16 219.12,18.16 C221.760013,18.16 223.759993,18.893326 225.12,20.36 C226.480007,21.826674 227.16,23.7866544 227.16,26.24 L227.16,38.24 L223.92,38.24 L222.6,36.76 C222.01333,37.3466696 221.240005,37.8133316 220.28,38.16 C219.319995,38.5066684 218.293339,38.68 217.2,38.68 C214.746654,38.68 212.92,38.0666728 211.72,36.84 C210.519994,35.6133272 209.92,34.00001 209.92,32 C209.92,29.8933228 210.62666,28.3533382 212.04,27.38 C213.45334,26.4066618 215.279989,25.92 217.52,25.92 L219.84,25.92 C219.733333,25.3333304 219.453336,24.8800016 219,24.56 C218.546664,24.2399984 217.98667,24.08 217.32,24.08 C216.65333,24.08 215.866671,24.1933322 214.96,24.42 C214.053329,24.6466678 213.22667,24.9199984 212.48,25.24 L210.56,20 Z M236.72,20.56 C237.546671,20.0799976 238.639993,19.5600028 240,19 C241.360007,18.4399972 242.853325,18.16 244.48,18.16 C247.22668,18.16 249.186661,18.926659 250.36,20.46 C251.533339,21.993341 252.12,23.9199884 252.12,26.24 L252.12,38.24 L244.84,38.24 L244.84,26.4 C244.84,25.6533296 244.613336,25.080002 244.16,24.68 C243.706664,24.279998 243.14667,24.08 242.48,24.08 C242.026664,24.08 241.453337,24.1999988 240.76,24.44 C240.066663,24.6800012 239.42667,24.933332 238.84,25.2 L238.84,38.24 L231.56,38.24 L231.56,18.88 L235.2,18.88 L236.72,20.56 Z M0,0 L48,0 L48,48 L0,48 L0,0 Z" id="path-1"></path>
    </defs>
    <g id="Page-1" stroke="none" stroke-width="1" fill="none" fill-rule="evenodd">
        <g id="Desktop-HD" transform="translate(-427.000000, -70.000000)">
            <g id="Rectangle" transform="translate(427.000000, 70.000000)">
                <mask id="mask-2" fill="white">
                    <use xlink:href="#path-1"></use>
                </mask>
                <use id="Mask" fill="#000000" fill-rule="nonzero" xlink:href="#path-1"></use>
                <rect fill="#000AD1" mask="url(#mask-2)" x="0" y="0" width="24" height="48"></rect>
            </g>
        </g>
    </g>
</svg>